<svg xmlns="http://www.w3.org/2000/svg" version="1.1" xmlns:xlink="http://www.w3.org/1999/xlink" xmlns:svgjs="http://svgjs.dev/svgjs" width="1500" height="1500" viewBox="0 0 1500 1500"><rect width="1500" height="1500" fill="#ffffff"></rect><g transform="matrix(0.6666666666666666,0,0,0.6666666666666666,250.65504691696037,582.3982859823815)"><svg viewBox="0 0 331 111" data-background-color="#ffffff" preserveAspectRatio="xMidYMid meet" height="503" width="1500" xmlns="http://www.w3.org/2000/svg" xmlns:xlink="http://www.w3.org/1999/xlink"><g id="tight-bounds" transform="matrix(1,0,0,1,-0.21682052951388187,-0.021500230748529248)"><svg viewBox="0 0 331.43364105902776 111.04300046149709" height="111.04300046149709" width="331.43364105902776"><g><svg viewBox="0 0 331.43364105902776 111.04300046149709" height="111.04300046149709" width="331.43364105902776"><g><svg viewBox="0 0 331.43364105902776 111.04300046149709" height="111.04300046149709" width="331.43364105902776"><g id="textblocktransform"><svg viewBox="0 0 331.43364105902776 111.04300046149709" height="111.04300046149709" width="331.43364105902776" id="textblock"><g><svg viewBox="0 0 331.43364105902776 73.63164062499999" height="73.63164062499999" width="331.43364105902776"><g><svg><g></g><g></g></svg></g><g><svg><g></g><g><svg></svg></g></svg></g><g id="text-0"><svg viewBox="0 0 331.43364105902776 73.63164062499999" height="73.63164062499999" width="331.43364105902776"><g><svg xmlns="http://www.w3.org/2000/svg" xmlns:xlink="http://www.w3.org/1999/xlink" version="1.1" x="0" y="0" viewBox="18.9 5 62.199999999999996 90" enable-background="new 0 0 100 100" xml:space="preserve" height="73.63164062499999" width="50.887644965277765" class="icon-cg-0" data-fill-palette-color="accent" id="cg-0"><g fill="#4d7e3e" data-fill-palette-color="accent"><path d="M81.1 36.1C81.1 19 67.2 5 50 5S18.9 19 18.9 36.1c0 15.9 12 29 27.4 30.9v11.7h-10v7.5h10V95h7.5v-8.8h10v-7.5h-10V67C69.2 65.2 81.1 52 81.1 36.1zM26.4 36.1c0-13 10.6-23.6 23.6-23.6 13 0 23.6 10.6 23.6 23.6S63 59.8 50 59.8C37 59.8 26.4 49.2 26.4 36.1z" fill="#4d7e3e" data-fill-palette-color="accent"></path><polygon points="30,38.8 42.5,47.5 42.5,42.5 33.6,36.2 42.5,30 42.5,25 30,33.8  " fill="#4d7e3e" data-fill-palette-color="accent"></polygon><polygon points="70,33.8 57.5,25 57.5,30 66.4,36.2 57.5,42.5 57.5,47.5 70,38.8  " fill="#4d7e3e" data-fill-palette-color="accent"></polygon><polygon points="55,25 50,25 45,47.5 50,47.5  " fill="#4d7e3e" data-fill-palette-color="accent"></polygon></g></svg></g><g transform="matrix(1,0,0,1,68.27162934027777,0)"><svg width="263.16201171874997" viewBox="3.44 -39.5 162.64000000000001 45.51" height="73.63164062499999" data-palette-color="#4d7e3e"><path d="M47.07-16.46L47.07-16.46Q47.07-13.55 46.39-10.4 45.7-7.25 44.47-4.26 43.24-1.27 41.5 1.39 39.77 4.05 37.65 6.01L37.65 6.01 34.55 4.32Q35.25 3.05 35.84 1.46 36.43-0.12 36.91-1.88 37.4-3.64 37.77-5.49 38.13-7.35 38.39-9.19 38.65-11.04 38.77-12.77 38.89-14.5 38.89-16.02L38.89-16.02Q38.89-16.87 38.84-17.87 38.79-18.87 38.64-19.87 38.48-20.87 38.16-21.79 37.84-22.71 37.29-23.43 36.74-24.15 35.93-24.57 35.11-25 33.96-25L33.96-25Q32.84-25 32.04-24.4 31.25-23.8 30.69-22.85 30.13-21.9 29.8-20.7 29.47-19.51 29.3-18.3 29.13-17.09 29.06-15.99 29-14.89 29-14.14L29-14.14 29 0 20.78 0 20.78-13.13Q20.78-13.99 20.8-15.2 20.83-16.41 20.74-17.72 20.65-19.04 20.42-20.35 20.19-21.66 19.69-22.68 19.19-23.71 18.33-24.35 17.48-25 16.19-25L16.19-25Q15.09-25 14.34-24.39 13.6-23.78 13.1-22.81 12.6-21.85 12.32-20.64 12.04-19.43 11.9-18.23 11.77-17.02 11.74-15.93 11.72-14.84 11.72-14.14L11.72-14.14 11.72 0 3.44 0 3.44-28.2 6.62-28.2 9.64-21.63Q10.67-25.05 12.88-26.97 15.09-28.88 18.75-28.88L18.75-28.88Q22.05-28.88 24.22-27.51 26.39-26.15 27.64-23.07L27.64-23.07Q28.34-24.41 29.21-25.49 30.08-26.56 31.14-27.32 32.2-28.08 33.5-28.48 34.79-28.88 36.35-28.88L36.35-28.88Q39.23-28.88 41.27-27.94 43.31-27 44.6-25.34 45.9-23.68 46.48-21.4 47.07-19.12 47.07-16.46ZM80.95-28.2L80.95 0 72.7 0 72.7-3.37Q71.24-1.37 69.17-0.4 67.11 0.56 64.65 0.56L64.65 0.56Q61.42 0.56 58.88-0.59 56.35-1.73 54.59-3.72 52.83-5.71 51.9-8.4 50.97-11.08 50.97-14.16L50.97-14.16Q50.97-17.24 51.9-19.92 52.83-22.61 54.59-24.6 56.35-26.59 58.88-27.73 61.42-28.88 64.65-28.88L64.65-28.88Q66.28-28.88 67.76-28.39 69.24-27.91 70.47-27.01 71.7-26.12 72.64-24.87 73.58-23.61 74.12-22.07L74.12-22.07 77.78-28.2 80.95-28.2ZM72.65-14.16L72.65-14.16Q72.65-15.26 72.54-16.48 72.43-17.7 72.17-18.9 71.9-20.09 71.42-21.18 70.94-22.27 70.2-23.11 69.46-23.95 68.41-24.44 67.36-24.93 65.96-24.93L65.96-24.93Q64.57-24.93 63.55-24.43 62.52-23.93 61.79-23.08 61.06-22.24 60.58-21.14 60.1-20.04 59.84-18.85 59.57-17.65 59.46-16.44 59.35-15.23 59.35-14.16L59.35-14.16Q59.35-13.09 59.46-11.87 59.57-10.64 59.84-9.45 60.1-8.25 60.58-7.15 61.06-6.05 61.79-5.21 62.52-4.37 63.55-3.87 64.57-3.37 65.96-3.37L65.96-3.37Q67.23-3.37 68.22-3.89 69.21-4.42 69.96-5.3 70.7-6.18 71.21-7.3 71.73-8.42 72.04-9.62 72.36-10.82 72.51-12 72.65-13.18 72.65-14.16ZM116.67-16.16L116.67-16.16Q116.67-13.31 115.97-10.21 115.28-7.1 114.03-4.13 112.79-1.15 111.05 1.48 109.32 4.1 107.25 6.01L107.25 6.01 104.15 4.32Q104.8 3.1 105.39 1.59 105.98 0.07 106.45-1.62 106.93-3.32 107.31-5.13 107.69-6.93 107.94-8.7 108.2-10.47 108.33-12.15 108.47-13.82 108.47-15.26L108.47-15.26Q108.47-16.21 108.39-17.3 108.32-18.38 108.09-19.47 107.86-20.56 107.47-21.56 107.08-22.56 106.43-23.32 105.78-24.07 104.87-24.54 103.95-25 102.7-25L102.7-25Q101.48-25 100.53-24.45 99.58-23.9 98.85-23.01 98.12-22.12 97.59-20.97 97.07-19.82 96.74-18.62 96.41-17.41 96.26-16.24 96.11-15.06 96.11-14.14L96.11-14.14 96.11 0 87.84 0 87.84-38.57 96.09-38.57 96.09-24.05Q97.68-26.37 99.98-27.62 102.29-28.88 105.1-28.88L105.1-28.88Q108.03-28.88 110.2-27.93 112.37-26.98 113.81-25.28 115.25-23.58 115.96-21.25 116.67-18.92 116.67-16.16ZM150.53-38.57L150.53 0 147.36 0 143.69-6.13Q143.16-4.59 142.22-3.34 141.28-2.1 140.04-1.21 138.81-0.32 137.33 0.17 135.86 0.66 134.22 0.66L134.22 0.66Q131 0.66 128.46-0.49 125.92-1.64 124.16-3.63 122.4-5.62 121.48-8.3 120.55-10.99 120.55-14.06L120.55-14.06Q120.55-17.14 121.48-19.82 122.4-22.51 124.16-24.49 125.92-26.46 128.46-27.61 131-28.76 134.22-28.76L134.22-28.76Q136.69-28.76 138.75-27.81 140.81-26.86 142.28-24.83L142.28-24.83 142.28-38.57 150.53-38.57ZM142.23-14.06L142.23-14.06Q142.23-15.04 142.08-16.21 141.94-17.38 141.62-18.58 141.3-19.78 140.79-20.9 140.28-22.02 139.53-22.9 138.79-23.78 137.8-24.3 136.81-24.83 135.54-24.83L135.54-24.83Q134.15-24.83 133.12-24.33 132.1-23.83 131.36-22.99 130.63-22.14 130.16-21.04 129.68-19.95 129.41-18.75 129.14-17.55 129.03-16.35 128.92-15.14 128.92-14.06L128.92-14.06Q128.92-12.99 129.03-11.78 129.14-10.57 129.41-9.38 129.68-8.18 130.16-7.07 130.63-5.96 131.36-5.11 132.1-4.27 133.12-3.77 134.15-3.27 135.54-3.27L135.54-3.27Q136.93-3.27 137.98-3.76 139.03-4.25 139.78-5.09 140.52-5.93 141-7.02 141.47-8.11 141.74-9.31 142.01-10.52 142.12-11.74 142.23-12.96 142.23-14.06ZM166.08-35.01L166.08-35.01Q166.08-34.08 165.72-33.25 165.37-32.42 164.76-31.81 164.15-31.2 163.32-30.85 162.49-30.49 161.56-30.49L161.56-30.49Q160.63-30.49 159.82-30.85 159-31.2 158.39-31.81 157.78-32.42 157.42-33.25 157.07-34.08 157.07-35.01L157.07-35.01Q157.07-35.94 157.42-36.76 157.78-37.57 158.39-38.18 159-38.79 159.82-39.15 160.63-39.5 161.56-39.5L161.56-39.5Q162.49-39.5 163.32-39.15 164.15-38.79 164.76-38.18 165.37-37.57 165.72-36.76 166.08-35.94 166.08-35.01ZM165.71-28.17L165.71 0 157.44 0 157.44-28.17 165.71-28.17Z" opacity="1" transform="matrix(1,0,0,1,0,0)" fill="#4d7e3e" class="wordmark-text-0" data-fill-palette-color="primary"></path></svg></g></svg></g></svg></g><g transform="matrix(1,0,0,1,63.3038254422743,91.01430381718748)"><svg viewBox="0 0 204.82599017447916 20.028696644309598" height="20.028696644309598" width="204.82599017447916"><g transform="matrix(1,0,0,1,0,0)"><svg width="204.82599017447916" viewBox="2.15 -38 503.1 49.2" height="20.028696644309598" data-palette-color="#4d7e3e"><path d="M12.05 0.7L12.05 0.7Q9.03 0.7 6.8-0.93 4.58-2.55 3.36-5.5 2.15-8.45 2.15-12.4L2.15-12.4Q2.15-18.55 4.66-22.03 7.18-25.5 12.15-25.5L12.15-25.5Q14.7-25.5 16.46-24.24 18.23-22.98 18.75-20.6L18.75-20.6 18.3-24.25 18.3-38 24.2-38 24.2 0 18.75 0 18.75-5.1Q18.07-2.53 16.38-0.91 14.68 0.7 12.05 0.7ZM13.5-4.25L13.5-4.25Q15.3-4.25 16.73-6.14 18.15-8.03 18.15-12.3L18.15-12.3Q18.15-16.2 17.05-18.32 15.95-20.45 13.65-20.45L13.65-20.45Q12.48-20.45 11.31-19.73 10.15-19 9.38-17.24 8.6-15.48 8.6-12.4L8.6-12.4Q8.6-8.28 10.03-6.26 11.45-4.25 13.5-4.25ZM40.9 0.65L40.9 0.65Q36.7 0.65 34.12-1.11 31.55-2.88 30.37-5.79 29.2-8.7 29.2-12.15L29.2-12.15Q29.2-15.78 30.54-18.81 31.87-21.85 34.46-23.68 37.05-25.5 40.8-25.5L40.8-25.5Q46.4-25.5 48.62-22.26 50.85-19.03 50.85-13.1L50.85-13.1Q50.85-12.58 50.82-11.78 50.8-10.98 50.75-10.4L50.75-10.4 35.75-10.4Q35.9-7.45 37.41-5.78 38.92-4.1 41.95-4.1L41.95-4.1Q43.5-4.1 45.27-4.79 47.05-5.48 47.9-6.45L47.9-6.45 49.9-1.7Q48.9-1.03 46.73-0.19 44.57 0.65 40.9 0.65ZM35.7-14.3L35.7-14.3 44.5-14.3Q44.5-16.93 44.03-18.31 43.57-19.7 42.77-20.23 41.97-20.75 40.95-20.75L40.95-20.75Q38.4-20.75 37.12-18.86 35.85-16.98 35.7-14.3ZM67.3 0L62.84 0 52.75-24.9 59.75-24.9 64.05-12.45 65.15-8.35 66.15-12.45 70.3-24.9 76.9-24.9 67.3 0ZM90.39 0.65L90.39 0.65Q86.19 0.65 83.62-1.11 81.04-2.88 79.87-5.79 78.69-8.7 78.69-12.15L78.69-12.15Q78.69-15.78 80.03-18.81 81.37-21.85 83.95-23.68 86.54-25.5 90.29-25.5L90.29-25.5Q95.89-25.5 98.12-22.26 100.34-19.03 100.34-13.1L100.34-13.1Q100.34-12.58 100.32-11.78 100.29-10.98 100.24-10.4L100.24-10.4 85.24-10.4Q85.39-7.45 86.91-5.78 88.42-4.1 91.44-4.1L91.44-4.1Q92.99-4.1 94.77-4.79 96.54-5.48 97.39-6.45L97.39-6.45 99.39-1.7Q98.39-1.03 96.23-0.19 94.07 0.65 90.39 0.65ZM85.19-14.3L85.19-14.3 93.99-14.3Q93.99-16.93 93.53-18.31 93.07-19.7 92.27-20.23 91.47-20.75 90.44-20.75L90.44-20.75Q87.89-20.75 86.62-18.86 85.34-16.98 85.19-14.3ZM112.44 0L106.34 0 106.34-38 112.44-38 112.44 0ZM128.84 0.5L128.84 0.5Q123.34 0.5 120.34-2.95 117.34-6.4 117.34-12.5L117.34-12.5Q117.34-18.65 120.44-22.08 123.54-25.5 129.04-25.5L129.04-25.5Q134.56-25.5 137.45-21.96 140.34-18.43 140.34-12.5L140.34-12.5Q140.34-6.58 137.35-3.04 134.36 0.5 128.84 0.5ZM128.94-4.5L128.94-4.5Q133.69-4.5 133.69-12.5L133.69-12.5Q133.69-20.55 128.94-20.55L128.94-20.55Q126.59-20.55 125.29-18.69 123.99-16.82 123.99-12.5L123.99-12.5Q123.99-8.2 125.29-6.35 126.59-4.5 128.94-4.5ZM152.28 10.9L146.24 10.9 146.24-24.9 152.19-24.9 152.19-24.1 151.69-20.6Q151.99-22.03 153.05-23.15 154.11-24.28 155.65-24.91 157.19-25.55 158.88-25.55L158.88-25.55Q163.84-25.55 166.11-22.09 168.38-18.63 168.38-12.8L168.38-12.8Q168.38-6.28 165.62-2.79 162.86 0.7 158.38 0.7L158.38 0.7Q155.61 0.7 153.95-1.03 152.28-2.75 151.69-4.95L151.69-4.95 152.28-0.25 152.28 10.9ZM156.94-4.25L156.94-4.25Q158.13-4.25 159.26-5.06 160.38-5.88 161.11-7.7 161.84-9.53 161.84-12.55L161.84-12.55Q161.84-16.75 160.4-18.6 158.96-20.45 157.03-20.45L157.03-20.45Q154.71-20.45 153.5-18.06 152.28-15.68 152.28-12.15L152.28-12.15Q152.28-8.63 153.52-6.44 154.76-4.25 156.94-4.25ZM184.33 0.65L184.33 0.65Q180.13 0.65 177.56-1.11 174.98-2.88 173.81-5.79 172.63-8.7 172.63-12.15L172.63-12.15Q172.63-15.78 173.97-18.81 175.31-21.85 177.9-23.68 180.48-25.5 184.23-25.5L184.23-25.5Q189.83-25.5 192.06-22.26 194.28-19.03 194.28-13.1L194.28-13.1Q194.28-12.58 194.26-11.78 194.23-10.98 194.18-10.4L194.18-10.4 179.18-10.4Q179.33-7.45 180.84-5.78 182.36-4.1 185.38-4.1L185.38-4.1Q186.93-4.1 188.71-4.79 190.48-5.48 191.33-6.45L191.33-6.45 193.33-1.7Q192.33-1.03 190.17-0.19 188.01 0.65 184.33 0.65ZM179.13-14.3L179.13-14.3 187.93-14.3Q187.93-16.93 187.47-18.31 187.01-19.7 186.21-20.23 185.41-20.75 184.38-20.75L184.38-20.75Q181.83-20.75 180.56-18.86 179.28-16.98 179.13-14.3ZM206.18 0L199.93 0 199.93-24.9 205.58-24.9 205.88-20.5Q206.28-21.48 207.12-22.58 207.96-23.68 209.44-24.44 210.93-25.2 213.28-25.2L213.28-25.2Q214.01-25.2 214.56-25.1 215.11-25 215.58-24.8L215.58-24.8 214.18-18.25Q213.38-19.05 211.73-19.05L211.73-19.05Q209.81-19.05 208.58-18.26 207.36-17.48 206.77-16.5 206.18-15.53 206.18-15L206.18-15 206.18 0ZM233.78 0.7L233.78 0.7Q231.48 0.7 229.96-0.33 228.45-1.35 227.71-3.05 226.98-4.75 226.98-6.8L226.98-6.8Q226.98-7.95 227.56-9.33 228.15-10.7 229.65-11.95 231.15-13.2 233.88-14 236.6-14.8 240.88-14.8L240.88-14.8 240.88-15.95Q240.88-17.8 239.99-19.03 239.1-20.25 236.43-20.25L236.43-20.25Q234.48-20.25 232.61-19.59 230.75-18.93 229.88-17.95L229.88-17.95 227.88-22.75Q229.38-23.78 231.89-24.64 234.4-25.5 237.48-25.5L237.48-25.5Q241.18-25.5 243.23-24.38 245.28-23.25 246.1-21.19 246.93-19.13 246.93-16.35L246.93-16.35 246.93 0 241.58 0 241.13-3.55Q238.53 0.7 233.78 0.7ZM236.43-4.1L236.43-4.1Q237.55-4.1 238.84-5.01 240.13-5.93 240.88-7.35L240.88-7.35 240.88-10.9Q240.63-10.95 240.34-10.95 240.05-10.95 239.68-10.95L239.68-10.95Q238.3-10.95 236.79-10.64 235.28-10.33 234.23-9.55 233.18-8.78 233.18-7.4L233.18-7.4Q233.18-5.6 233.98-4.85 234.78-4.1 236.43-4.1ZM260.02 0L253.62 0 253.62-24.9 259.42-24.9 259.55-21.63Q260.52-23.13 262.27-24.31 264.02-25.5 266.87-25.5L266.87-25.5Q270.67-25.5 272.52-23.1 274.37-20.7 274.37-16.45L274.37-16.45 274.37 0 267.97 0 267.97-15.9Q267.97-17.98 267.1-19.26 266.22-20.55 264.42-20.55L264.42-20.55Q262.67-20.55 261.35-19.26 260.02-17.98 260.02-15.9L260.02-15.9 260.02 0ZM289.92 0.7L289.92 0.7Q286.89 0.7 284.67-0.93 282.44-2.55 281.23-5.5 280.02-8.45 280.02-12.4L280.02-12.4Q280.02-18.55 282.53-22.03 285.05-25.5 290.02-25.5L290.02-25.5Q292.57-25.5 294.33-24.24 296.1-22.98 296.62-20.6L296.62-20.6 296.17-24.25 296.17-38 302.07-38 302.07 0 296.62 0 296.62-5.1Q295.94-2.53 294.25-0.91 292.55 0.7 289.92 0.7ZM291.37-4.25L291.37-4.25Q293.17-4.25 294.6-6.14 296.02-8.03 296.02-12.3L296.02-12.3Q296.02-16.2 294.92-18.32 293.82-20.45 291.52-20.45L291.52-20.45Q290.35-20.45 289.18-19.73 288.02-19 287.25-17.24 286.47-15.48 286.47-12.4L286.47-12.4Q286.47-8.28 287.89-6.26 289.32-4.25 291.37-4.25ZM327.52 0.7L327.52 0.7Q324.49 0.7 322.27-0.93 320.04-2.55 318.83-5.5 317.62-8.45 317.62-12.4L317.62-12.4Q317.62-18.55 320.13-22.03 322.64-25.5 327.62-25.5L327.62-25.5Q330.17-25.5 331.93-24.24 333.69-22.98 334.22-20.6L334.22-20.6 333.77-24.25 333.77-38 339.67-38 339.67 0 334.22 0 334.22-5.1Q333.54-2.53 331.84-0.91 330.14 0.7 327.52 0.7ZM328.97-4.25L328.97-4.25Q330.77-4.25 332.19-6.14 333.62-8.03 333.62-12.3L333.62-12.3Q333.62-16.2 332.52-18.32 331.42-20.45 329.12-20.45L329.12-20.45Q327.94-20.45 326.78-19.73 325.62-19 324.84-17.24 324.07-15.48 324.07-12.4L324.07-12.4Q324.07-8.28 325.49-6.26 326.92-4.25 328.97-4.25ZM356.36 0.65L356.36 0.65Q352.16 0.65 349.59-1.11 347.01-2.88 345.84-5.79 344.66-8.7 344.66-12.15L344.66-12.15Q344.66-15.78 346-18.81 347.34-21.85 349.93-23.68 352.51-25.5 356.26-25.5L356.26-25.5Q361.86-25.5 364.09-22.26 366.31-19.03 366.31-13.1L366.31-13.1Q366.31-12.58 366.29-11.78 366.26-10.98 366.21-10.4L366.21-10.4 351.21-10.4Q351.36-7.45 352.88-5.78 354.39-4.1 357.41-4.1L357.41-4.1Q358.96-4.1 360.74-4.79 362.51-5.48 363.36-6.45L363.36-6.45 365.36-1.7Q364.36-1.03 362.2-0.19 360.04 0.65 356.36 0.65ZM351.16-14.3L351.16-14.3 359.96-14.3Q359.96-16.93 359.5-18.31 359.04-19.7 358.24-20.23 357.44-20.75 356.41-20.75L356.41-20.75Q353.86-20.75 352.59-18.86 351.31-16.98 351.16-14.3ZM379.01 0.45L379.01 0.45Q376.29 0.45 374.55-0.06 372.81-0.58 371.85-1.24 370.89-1.9 370.51-2.35L370.51-2.35 372.36-7.1Q373.46-6.2 375.17-5.33 376.89-4.45 379.16-4.45L379.16-4.45Q380.94-4.45 381.65-5.18 382.36-5.9 382.36-6.75L382.36-6.75Q382.36-7.93 380.74-8.88 379.11-9.83 376.96-10.75L376.96-10.75Q375.69-11.3 374.26-12.15 372.84-13 371.82-14.4 370.81-15.8 370.81-18L370.81-18Q370.81-21.38 373.27-23.39 375.74-25.4 380.26-25.4L380.26-25.4Q383.16-25.4 385.17-24.54 387.19-23.68 387.86-23L387.86-23 386.16-18.5Q385.19-19.25 383.69-19.93 382.19-20.6 380.46-20.6L380.46-20.6Q378.56-20.6 377.81-20.1 377.06-19.6 377.06-18.5L377.06-18.5Q377.06-17.28 378.4-16.49 379.74-15.7 381.61-14.95L381.61-14.95Q384.74-13.73 386.65-11.94 388.56-10.15 388.56-7.4L388.56-7.4Q388.56-5.35 387.61-3.56 386.66-1.78 384.56-0.66 382.46 0.45 379.01 0.45ZM400.86-28.95L393.86-28.95 393.86-35.6 400.86-35.6 400.86-28.95ZM400.61 0L394.11 0 394.11-24.9 400.61-24.9 400.61 0ZM408.71 9L411.51 4.3Q412.41 4.85 413.69 5.3 414.98 5.75 416.71 5.75L416.71 5.75Q419.91 5.75 421.51 4.09 423.11 2.43 423.11-1.2L423.11-1.2 423.11-5.1Q422.76-3.83 422.01-2.58 421.26-1.33 419.94-0.51 418.63 0.3 416.61 0.3L416.61 0.3Q413.78 0.3 411.49-0.99 409.21-2.27 407.86-5.08 406.51-7.88 406.51-12.4L406.51-12.4Q406.51-17 407.84-19.89 409.18-22.78 411.44-24.14 413.71-25.5 416.46-25.5L416.46-25.5Q419.53-25.5 421.16-23.95 422.78-22.4 423.11-20.6L423.11-20.6 423.81-24.9 428.71-24.9 428.71-1.2Q428.71 4.53 425.82 7.86 422.93 11.2 417.31 11.2L417.31 11.2Q414.28 11.2 412.06 10.44 409.83 9.68 408.71 9L408.71 9ZM417.86-4.6L417.86-4.6Q420.03-4.6 421.27-6.66 422.51-8.72 422.51-12.5L422.51-12.5Q422.51-16.07 421.43-18.26 420.36-20.45 418.06-20.45L418.06-20.45Q416.78-20.45 415.62-19.69 414.46-18.93 413.71-17.18 412.96-15.43 412.96-12.45L412.96-12.45Q412.96-8.4 414.34-6.5 415.73-4.6 417.86-4.6ZM442.35 0L435.95 0 435.95-24.9 441.75-24.9 441.88-21.63Q442.85-23.13 444.6-24.31 446.35-25.5 449.2-25.5L449.2-25.5Q453-25.5 454.85-23.1 456.7-20.7 456.7-16.45L456.7-16.45 456.7 0 450.3 0 450.3-15.9Q450.3-17.98 449.43-19.26 448.55-20.55 446.75-20.55L446.75-20.55Q445-20.55 443.68-19.26 442.35-17.98 442.35-15.9L442.35-15.9 442.35 0ZM474 0.65L474 0.65Q469.8 0.65 467.23-1.11 464.65-2.88 463.48-5.79 462.3-8.7 462.3-12.15L462.3-12.15Q462.3-15.78 463.64-18.81 464.98-21.85 467.56-23.68 470.15-25.5 473.9-25.5L473.9-25.5Q479.5-25.5 481.73-22.26 483.95-19.03 483.95-13.1L483.95-13.1Q483.95-12.58 483.93-11.78 483.9-10.98 483.85-10.4L483.85-10.4 468.85-10.4Q469-7.45 470.51-5.78 472.03-4.1 475.05-4.1L475.05-4.1Q476.6-4.1 478.38-4.79 480.15-5.48 481-6.45L481-6.45 483-1.7Q482-1.03 479.84-0.19 477.68 0.65 474 0.65ZM468.8-14.3L468.8-14.3 477.6-14.3Q477.6-16.93 477.14-18.31 476.68-19.7 475.88-20.23 475.08-20.75 474.05-20.75L474.05-20.75Q471.5-20.75 470.23-18.86 468.95-16.98 468.8-14.3ZM495.85 0L489.6 0 489.6-24.9 495.25-24.9 495.55-20.5Q495.95-21.48 496.79-22.58 497.62-23.68 499.11-24.44 500.6-25.2 502.95-25.2L502.95-25.2Q503.67-25.2 504.22-25.1 504.77-25 505.25-24.8L505.25-24.8 503.85-18.25Q503.05-19.05 501.4-19.05L501.4-19.05Q499.47-19.05 498.25-18.26 497.02-17.48 496.44-16.5 495.85-15.53 495.85-15L495.85-15 495.85 0Z" opacity="1" transform="matrix(1,0,0,1,0,0)" fill="#4d7e3e" class="slogan-text-1" data-fill-palette-color="secondary" id="text-1"></path></svg></g></svg></g></svg></g></svg></g></svg></g><defs></defs></svg><rect width="331.43364105902776" height="111.04300046149709" fill="none" stroke="none" visibility="hidden"></rect></g></svg></g></svg>